PathFileType	4	(X/Y/Z)	s06c0201.trc
DataRate	CameraRate	NumFrames	NumMarkers	Units	OrigDataRate	OrigDataStartFrame	OrigNumFrames
200	200	4	49	mm	200	1750	2000
Frame#	Time	racr			lacr			c7			jug			rlel			rdr			llel			ldr			s2			lic			ric			lasi			rasi			rpsi			lpsi			rgt			lgt			rth1			rth2			rth3			rth4			rlfc			rmfc			rsh1			rsh2			rsh3			rsh4			rlmal			rmmal			rcal			rtoe			rmt5			lth1			lth2			lth4			lth3			llfc			lmfc			llmal			lcal			lmt5			lsh1			lsh2			lsh3			lsh4			ltoe			SBIKE			LBIKE			RBIKE			
		X1	Y1	Z1	X2	Y2	Z2	X3	Y3	Z3	X4	Y4	Z4	X5	Y5	Z5	X6	Y6	Z6	X7	Y7	Z7	X8	Y8	Z8	X9	Y9	Z9	X10	Y10	Z10	X11	Y11	Z11	X12	Y12	Z12	X13	Y13	Z13	X14	Y14	Z14	X15	Y15	Z15	X16	Y16	Z16	X17	Y17	Z17	X18	Y18	Z18	X19	Y19	Z19	X20	Y20	Z20	X21	Y21	Z21	X22	Y22	Z22	X23	Y23	Z23	X24	Y24	Z24	X25	Y25	Z25	X26	Y26	Z26	X27	Y27	Z27	X28	Y28	Z28	X29	Y29	Z29	X30	Y30	Z30	X31	Y31	Z31	X32	Y32	Z32	X33	Y33	Z33	X34	Y34	Z34	X35	Y35	Z35	X36	Y36	Z36	X37	Y37	Z37	X38	Y38	Z38	X39	Y39	Z39	X40	Y40	Z40	X41	Y41	Z41	X42	Y42	Z42	X43	Y43	Z43	X44	Y44	Z44	X45	Y45	Z45	X46	Y46	Z46	X47	Y47	Z47	X48	Y48	Z48	X49	Y49	Z49	
1750	8.7500	577.427317	1213.841276	-106.365716	568.007060	1182.327425	-418.870312	567.826121	1300.581030	-262.632827	530.103494	1129.223867	-243.273635	495.324450	1010.420878	59.458924	657.967504	922.146201	-66.071780	453.115510	949.879134	-521.110703	641.712491	915.687340	-411.906729	5.625410	1133.544791	-199.919199	150.380108	1100.249344	-394.684244	162.030267	1101.090305	-53.288747	178.586801	1052.418442	-356.039727	186.275261	1059.222826	-90.491392	43.547014	1176.848177	-176.523015	34.230883	1170.334585	-236.574359	135.223912	1023.980376	-13.198259	130.983333	1039.563431	-410.636691	237.697792	951.524051	-15.878198	317.686849	910.709150	-27.372709	365.116717	838.284131	-32.798290	336.872826	937.226033	-46.189931	399.267439	747.080900	-59.001633	384.459626	730.639854	-170.207194	310.629882	664.056052	-36.603462	252.212867	603.734834	-60.364663	169.441912	572.469341	-61.628260	264.426535	590.970177	-97.267207	96.715630	541.369756	-66.455985	122.681861	514.503990	-155.025719	37.892525	572.354499	-114.103547	163.201804	325.975567	-102.348388	95.750895	402.548032	-38.024688	190.185581	926.331802	-424.386964	262.402205	877.915517	-419.084402	289.650681	901.399708	-409.140349	301.148295	797.659077	-413.214852	348.786670	688.351371	-393.594756	357.419671	671.391836	-279.984170	263.542348	325.241848	-383.298560	190.326926	304.088326	-335.970363	376.521122	242.009618	-410.867560	326.420925	581.766060	-414.277065	328.205587	496.521546	-395.157602	288.538037	418.770805	-397.647600	355.703619	494.475297	-366.461826	463.480486	238.018597	-353.549457	-204.342779	867.578487	-219.948879	-50.351111	79.703111	-419.885913	-50.356190	79.376231	-22.522817	
1751	8.7550	577.998702	1213.823718	-106.178600	568.574306	1181.598092	-418.126316	568.632688	1300.512993	-262.267134	530.225608	1128.957148	-243.445936	495.934361	1010.534872	59.734582	658.297455	922.490542	-66.135451	453.140692	949.781453	-520.897299	641.832801	915.752410	-411.856722	5.978822	1134.761550	-201.169169	151.119488	1100.732211	-395.243729	161.399349	1103.469184	-53.279242	179.544475	1053.099212	-356.325121	185.798953	1061.179796	-89.942405	43.956344	1178.208394	-177.794996	34.874568	1171.389665	-237.916504	134.931284	1027.954134	-13.086926	131.231146	1038.925194	-410.222629	237.808228	957.054732	-15.972650	318.814576	918.002737	-26.656314	367.626928	846.457436	-32.042962	337.676512	945.023397	-45.030188	403.995202	756.364752	-58.602966	390.203160	739.628049	-170.117150	315.363038	672.937425	-36.539196	257.150208	612.743569	-60.289868	174.256276	581.904922	-61.587795	269.307302	600.104700	-97.267128	101.153973	551.071418	-66.523560	127.453846	524.424426	-154.992226	42.121827	581.599567	-113.861785	169.413699	336.259237	-102.498674	101.346308	412.253306	-38.100594	187.847097	924.640602	-423.952841	258.874548	874.591174	-418.973580	286.723649	897.500309	-409.132664	295.750943	793.351672	-413.076259	341.696331	681.865531	-393.459034	349.411971	664.755354	-280.287186	259.910671	318.165104	-383.155908	186.999957	298.515890	-335.669827	371.842916	232.411945	-410.630199	320.185352	574.932333	-414.152408	322.887440	489.817099	-395.140138	283.930714	411.711528	-397.476042	350.348171	488.047409	-366.332475	458.657950	226.446602	-353.273838	-204.341482	867.559871	-219.905682	-50.350749	79.718195	-419.870438	-50.344194	79.344630	-22.493472	
1752	8.7600	578.531717	1213.909814	-105.940438	569.018814	1181.105330	-417.431791	569.624669	1300.546548	-261.762720	530.491953	1128.900907	-243.430214	496.319671	1010.618057	59.666157	658.770099	922.936501	-66.137978	453.114661	950.006680	-520.680724	641.868447	915.953678	-411.951815	5.768452	1136.963496	-201.633826	152.000015	1101.231295	-395.805177	159.573475	1105.977219	-51.726856	180.430449	1053.517895	-356.795854	185.440610	1064.018715	-87.802822	44.093061	1179.500926	-179.369015	36.145976	1172.397966	-239.063865	134.456854	1032.051692	-12.887113	131.583983	1038.241006	-410.393729	237.686895	962.330747	-16.501793	319.924639	925.370031	-25.923782	370.212481	854.990084	-31.229328	338.412427	952.881745	-43.869376	409.353953	765.554251	-58.351629	395.981826	749.006283	-170.154233	320.733203	681.814859	-36.472123	262.326993	621.842123	-60.310155	179.410335	591.200429	-61.596453	274.477327	609.212544	-97.205876	106.091058	560.503909	-66.530170	132.561953	534.038027	-155.064849	46.658003	590.446071	-113.996739	176.211287	346.294216	-102.769483	107.881944	421.645832	-38.013265	185.712927	923.069058	-423.682513	255.485108	871.256407	-419.040360	283.896960	893.473712	-409.106533	290.402330	788.859614	-413.075501	334.244720	675.540929	-393.540946	341.085098	658.428406	-280.476625	255.815431	311.518893	-383.186828	183.148249	293.272707	-335.492912	366.597546	223.121574	-410.361466	313.604677	568.444400	-414.240530	317.236555	483.321065	-395.238892	278.962151	404.756983	-397.372838	344.843525	481.847083	-366.385773	453.233831	215.240805	-353.107500	-204.339713	867.571776	-219.917771	-50.344334	79.716540	-419.855004	-50.340951	79.406931	-22.492797	
1753	8.7650	578.997249	1214.187091	-105.762159	569.531435	1180.928777	-416.646204	570.736348	1300.730316	-261.350277	530.579887	1128.937944	-243.684265	496.985010	1010.974978	59.535325	659.231695	923.839143	-66.551930	453.109049	950.470591	-520.411016	641.998315	916.074000	-411.986687	6.233675	1138.156546	-203.182523	152.942596	1101.774559	-396.367518	158.819080	1107.999169	-52.642166	181.355255	1054.053492	-357.158454	184.248186	1065.180147	-88.056315	45.015886	1180.845884	-181.085242	37.204177	1173.391470	-240.695047	133.840395	1036.005851	-12.918284	132.071603	1037.296690	-410.638440	239.039724	969.042107	-15.650997	320.974812	932.805318	-25.055585	372.914363	863.588409	-30.587971	338.992996	960.808070	-42.784238	414.680511	775.116291	-58.126661	398.081762	758.584315	-169.275418	326.265653	690.822121	-36.484532	267.838376	630.854321	-60.286463	184.870680	600.221742	-61.607680	279.771149	619.012078	-96.684221	111.250622	569.421647	-66.707775	138.329601	543.455468	-155.395735	51.350466	598.679417	-114.396851	183.688291	356.226636	-102.894271	114.073209	430.765354	-38.480579	183.827425	921.408346	-423.757172	252.212087	867.798793	-419.117700	281.153205	889.353062	-409.277622	284.998295	784.486795	-412.725529	326.592190	669.447879	-393.710765	332.812432	652.087675	-280.671176	251.276033	305.002234	-382.939753	178.824477	288.386389	-335.446172	360.714199	214.526947	-410.764736	306.521218	562.130949	-414.305832	311.099661	477.019933	-395.434727	273.571369	398.129552	-397.365588	338.675394	475.896549	-366.558770	447.258858	204.445934	-352.883352	-204.332147	867.586762	-219.957608	-50.340689	79.756722	-419.867532	-50.326653	79.418131	-22.504343	
